<?xml version="1.0" encoding="utf-8"?>
<!-- Generator: Adobe Illustrator 15.1.0, SVG Export Plug-In . SVG Version: 6.00 Build 0)  -->
<!DOCTYPE svg PUBLIC "-//W3C//DTD SVG 1.1//EN" "http://www.w3.org/Graphics/SVG/1.1/DTD/svg11.dtd">
<svg version="1.1" id="Layer_1" xmlns="http://www.w3.org/2000/svg" xmlns:xlink="http://www.w3.org/1999/xlink" x="0px" y="0px"
	 width="320px" height="240px" viewBox="0 0 320 240" enable-background="new 0 0 320 240" xml:space="preserve">
<g>
	<path fill="none" d="M0,215.251v0.438c1.363-0.567,2.455-1.114,3.207-1.582C2,214.399,1.017,214.822,0,215.251z"/>
	<path fill="none" d="M319.515,212.757c-0.518,0.207-1.063,0.427-1.624,0.659c0.819-0.15,1.509-0.283,2.109-0.405v-0.365
		C319.839,212.683,319.68,212.719,319.515,212.757z"/>
	<path fill="none" d="M3.856,209.103C2.54,209.529,1.25,209.909,0,210.25v0.271C1.305,210.071,2.595,209.602,3.856,209.103z"/>
	<polygon fill="none" points="95.297,176.79 95.35,176.8 95.428,176.802 	"/>
	<path fill="none" d="M310.899,221.444c1.27-0.14,4.995-0.954,9.101-1.885v-0.961c-0.927,0.244-1.579,0.45-2.156,0.65
		C316.349,219.768,315.309,220.254,310.899,221.444z"/>
	<path fill="none" d="M61.022,172.337c-0.096,0.047-0.19,0.096-0.284,0.145C60.832,172.434,60.926,172.385,61.022,172.337z"/>
	<path fill="none" d="M57.615,174.625c1.048-0.681,2.062-1.442,3.223-2.01c-0.474,0.182-1.312,0.65-2.783,1.687L57.615,174.625z"/>
	<path fill="none" d="M93.314,176.606l1.983,0.184C94.112,176.588,93.367,176.511,93.314,176.606z"/>
	<path fill="none" d="M76.804,170.146c-3.083-0.159-5.701,0.016-8.183,0.439c6.846-0.672,14.237,0.203,21.948,1.547l1.776,0.083
		c-5.203-0.991-8.842-1.425-9.307-1.507c3.444,0.403,6.624,0.787,9.032,1.006c-6.061-1.022-11.941-1.697-17.188-1.736
		C75.545,170.018,76.195,170.069,76.804,170.146z"/>
	<path fill="#EF4136" d="M68.392,164.166c1.769-0.165,3.494-0.222,5.188-0.216C72.375,163.824,70.452,163.887,68.392,164.166z"/>
	<path fill="#EF4136" d="M2.528,207.309l1.606-0.756c-1.127,0.42-2.543,0.951-4.134,1.511v0.213
		C0.807,207.98,1.642,207.663,2.528,207.309z"/>
	<path fill="#EF4136" d="M320,212.563c-0.16,0.064-0.318,0.127-0.485,0.194c0.165-0.038,0.324-0.074,0.485-0.111V212.563z"/>
	<path fill="#EF4136" d="M48.108,181.119l2.964-2.028c-0.445,0.063-0.896,0.163-2.194,0.93L48.108,181.119z"/>
	<path fill="#EF4136" d="M96.482,171.712l-1.229-0.253l2.549,0.286c-2.047-0.45-4.096-0.87-6.137-1.25
		c-0.048-0.476,6.778,1.116,6.937,1.347l-0.8-0.097c1.618,0.358,3.231,0.732,4.828,1.118l1.826,0.306l3.119,0.33l-0.428-0.093
		c3.354,0.517,0.105-1.156-5.091-1.819l1.295,0.007c-1.569-0.081-6.521-0.94-8.227-1.458c4.313,0.666-2.054-0.809-2.732-1.125
		c7.495,1.258,14.858,2.935,22.165,4.699c-0.308,0.031-0.922,0.086-2.881-0.365c6.195,1.468,5.173,0.535,10.265,1.892l3.339,0.417
		c1.126,0.074,2.695,0.264,4.459,0.534c2.565,0.288,5.143,0.558,7.547,0.656c0.576,0.019,1.223,0.039,1.673,0.01
		c0.369-0.036,0.726-0.107,1.083-0.205c0.712-0.196,1.437-0.512,2.208-0.948c1.541-0.867,3.227-2.223,4.993-3.805
		c1.774-1.584,3.635-3.392,5.73-5.251c1.374-1.204,3.306-2.646,5.815-4.048c2.492-1.393,5.646-2.734,9.149-3.374
		c3.492-0.67,7.192-0.479,10.131,0.185c2.964,0.65,5.223,1.609,6.758,2.197c-1.505-0.501-1.116-0.1,0.323,0.792
		c0.712,0.454,1.66,1.055,2.725,1.772l1.6,1.104c0.444,0.309,0.921,0.62,1.421,0.928c0.877,0.415-0.409-0.535-1.062-1.146
		c3.129,2.454,7.306,5.099,11.465,7.189c4.15,2.098,8.24,3.703,10.902,4.407l-3.881-0.897c6.303,2.391,10.512,4.066,15.199,5.646
		c-0.277-0.016-1.814-0.616-1.671-0.372c3.782,2.104,8.838,3.633,12.726,6.649c-1.057-0.679-2.11-1.287-3.156-1.846
		c-0.329-0.073,0.515,0.452,1.695,1.237c1.181,0.772,2.7,1.876,3.699,2.709c1.397,1.083,3.569,3.115,4.694,4.421
		c0.571,0.629,0.917,1.004,0.876,0.795c-0.042-0.161-0.344-0.769-1.116-1.804c-0.172-0.22-0.337-0.452-0.514-0.665
		c0.194,0.241,0.36,0.458,0.514,0.665c0.641,0.817,1.256,1.672,1.807,2.593l0.508,0.89c0.103,0.184,0.105,0.195,0.159,0.305
		c0.1,0.177,0.214,0.367,0.347,0.565c0.075,0.023,0.071-0.065,0.045-0.181c-0.076-0.173-0.126-0.327-0.13-0.44
		c0.028,0.112,0.098,0.298,0.13,0.44c0.117,0.264,0.31,0.583,0.606,0.955c0.485,0.612,1.211,1.33,2.006,1.983
		c1.575,1.32,3.288,2.371,2.834,2.535c-1.398-0.616-2.027-0.849-2.857-1.263c-0.416-0.207-0.862-0.471-1.438-0.871
		c-0.564-0.401-1.255-0.954-1.97-1.727l-0.569-1.197c-0.052-0.098-0.087-0.192-0.128-0.286l-0.064-0.14l-0.201-0.376
		c-0.278-0.519-0.593-1.035-0.936-1.544c-1.368-2.05-3.224-3.936-5.248-5.506c-4.08-3.162-8.676-5.203-12.816-7.195
		c-2.408-0.659-1.562-0.179-6.815-2.293c0.689-0.071,3.355,0.921,5.299,1.652c1.939,0.731,3.122,1.144,0.702-0.332
		c-2.221-1.102-5.213-2.393-7.863-3.423c-2.654-1.029-4.976-1.824-5.999-1.891c6.297,2.616,5.834,2.76,5.265,2.899
		c-0.529,0.148-1.143,0.221,5.365,2.81c0.429,0.165,0.889,0.349,1.393,0.565l-1.393-0.565c-2.867-1.104-4.618-1.389-9.057-3.182
		c-7.164-3.301,12.852,4.298-2.936-2.398l-1.823,0.307c-3.438-1.568-7.907-3.853-10.388-5.338l-1.279-0.698
		c-0.953-0.007,3.402,2.541,2.586,2.394c3.098,1.688,7.048,3.631,11,5.362c3.947,1.734,7.88,3.3,10.807,4.39l-2.319-1.035
		c3.977,1.68,4.819,1.887,5.354,1.926c0.539,0.057,0.777-0.073,3.662,1.268l-0.437,0.847c1.987,0.792,4.059,1.797,5.947,2.912
		c1.891,1.105,3.587,2.34,4.843,3.394c-0.212,0.274-1.433-0.605-3.346-1.83c-1.912-1.233-4.533-2.754-7.389-4.17
		c-5.727-2.826-12.239-5.505-15.898-6.547c-1.226-0.75-1.767-1.181-6.068-3.118c-0.019,0.543-3.137-0.765-6.829-2.774
		c-1.846-1.005-3.829-2.19-5.663-3.37c-0.917-0.59-1.801-1.174-2.615-1.729l-1.268-0.845c-0.432-0.278-0.852-0.529-1.251-0.753
		c-1.408-0.883-0.066-0.218,1.199,0.512l0.896,0.524c0.244,0.139,0.441,0.244,0.573,0.302c0.261,0.114,0.237,0.023-0.35-0.466
		c-2.397-1.669-4.467-2.589-6.713-3.339c-2.261-0.708-4.757-1.379-8.467-1.467c0.914-0.06,0.331-0.116,1.268-0.146
		c-2.9,0.046-4.45,0.497-5.247,0.638c-0.795,0.173-0.856,0.138-0.643,0c0.416-0.288,2.04-0.843,1.025-0.777
		c-0.555,0.091-1.103,0.202-1.621,0.304c0.823-0.21,1.324-0.283,1.621-0.304c2.362-0.408,5.083-0.57,7.604-0.224
		c2.523,0.327,4.785,1.093,6.399,1.928c1.455,0.403,3.518,1.39,5.503,2.69c1.749,1.106,3.758,2.344,5.837,3.507
		c0.03-0.006,0.018-0.03,0.076-0.016l1.203,0.714c4.05,2.196,8.199,3.981,10.526,4.466c-2.749-1.309-6.882-3.322-10.204-5.289
		c-3.342-1.944-5.879-3.82-5.975-4.177c-0.73-0.433-1.821-1.14-2.858-1.693c-1.045-0.569-2.122-1.083-3.229-1.53
		c-2.212-0.894-4.562-1.515-6.952-1.744c-2.387-0.235-4.788-0.055-7.007,0.465c-2.224,0.519-4.258,1.354-6.099,2.337
		c-3.688,1.983-6.669,4.484-9.637,6.973c-2.959,2.462-5.922,5.118-9.38,6.825c-1.412,0.589-2.434,0.756-3.12,0.787
		c-0.687,0.023-1.046-0.078-1.174-0.188c-0.247-0.233,0.381-0.467,1.351-0.822c-1.3,0.256-2.072,0.229-2.772,0.202
		c-0.826-0.05-1.404-0.073-1.909-0.072c-1.019-0.009-1.769,0.074-4.146-0.274c2.448,0.23,3.269,0.233,3.188,0.085
		c-0.083-0.153-1.081-0.484-2.362-1.088c-1.239-0.237-2.452-0.439-3.598-0.615l-4.459-0.534c-0.943-0.063-1.54-0.047-1.706,0.046
		l1.118,0.32l-0.589,0.062c-0.565-0.186-0.673-0.306-0.529-0.382l-1.633-0.463c-4.773-0.605-9.567-1.214-14.366-1.738
		c2.751,0.597,5.495,1.221,8.233,1.857c-4.469-0.856-8.162-1.624-11.352-2.187l-0.963-0.094l4.645,1.176
		c0.568,0.104,1.184,0.22,1.932,0.381c-0.299-0.056-0.546-0.067-0.698-0.054l1.478,0.399c3.818,0.435,13.092,2.428,15.8,2.81
		l-2.194-0.405c1.045,0.112,1.807,0.258,2.85,0.367c0.433,0.165,0.077,0.147-0.656,0.038c3.545,0.67,7.852,1.555,10.476,2.001
		l1.112,0.177l-1.112-0.177c-2.439-0.399-5.765-1.082-4.83-0.618c2.483,0.663,4.363,1.321,6.594,1.69
		c2.153,0.303,4.988-0.178,8.583-2.65c-1.466,0.854-2.98,1.583-4.54,2.042c3.423-1.355,6.37-3.868,9.358-6.408
		c1.789-1.064,0.664-0.082-1.042,1.277c-1.698,1.38-4.036,2.948-4.659,3.441c3.74-2.331,7.125-4.888,10.22-6.843
		c3.076-2.003,5.776-3.444,7.679-4.705c0.391,0.099,0.903,0.218,2.038,0.086c1.142-0.09,2.89-0.562,5.947-0.696
		c-1.106-0.106-1.444-0.131-1.369-0.216c0.075-0.078,0.562-0.171,1.082-0.238c1.031-0.122,2.221-0.179,0.317-0.501
		c1.117-0.178,2.948,0.007,4.464,0.407c1.228,0.306,2.245,0.696,2.726,0.783l0.257,0.009c-0.047,0.021-0.141,0.012-0.257-0.009
		l-0.378-0.013c2.494,1.119,4.352,2.336,5.922,3.387c1.526,1.055,2.823,1.81,4.023,2.417c2.392,1.208,4.263,1.817,6.27,2.687
		c5.413,2.809,9.505,4.623,13.351,6.343l12.184,5.291c0.23,0.487,2.418,2.371,6.01,4.329c0.939,0.279,3.473,1.535,5.72,3.168
		c2.283,1.581,4.107,3.677,4.616,3.961c-1.116-1.687-2.131-2.676-2.91-3.367c-0.789-0.688-1.378-1.069-1.896-1.373
		c-1.044-0.59-1.792-0.91-3.729-2.034c-1.44-1.215-1.462-1.361-1.624-1.593c-0.169-0.218-0.489-0.534-2.68-1.832
		c1.758,1.034,6.019,2.976,9.782,6.274c0.93,0.828,1.814,1.74,2.592,2.71c0.383,0.491,0.748,0.985,1.071,1.494
		c0.32,0.479,0.647,1.094,0.824,1.388c0.848,1.442,1.871,2.597,2.498,3.382c-0.358-0.305-0.707-0.619-1.041-0.943
		c1.008,1.215,1.914,2.167,2.781,3.042c0.873,0.872,1.721,1.662,2.752,2.458c2.065,1.56,4.87,3.267,10.416,4.769
		c1.754,0.486,3.526,0.899,5.309,1.252c0.233,0.003,0.657,0.078,1.62,0.304l-1.62-0.304c-0.269-0.012-0.31,0.046-0.461,0.058
		c4.309,1.163,5.892,1.576,7.59,2.001c1.703,0.381,3.55,0.787,8.509,0.975c-0.763-0.027-0.29,0.08-1.065,0.047
		c5.617,0.866,11.361,0.186,15.584-0.237c2.628,0.28-0.584,0.528-2.188,0.926c4.992-0.113,10.157-0.905,14.71-2.09
		c2.278-0.58,4.396-1.281,6.362-1.919l5.2-1.735c1.395-0.271,2.799-0.523,4.201-0.78V0.454H0v203.455
		c2.572-1.144,5.242-2.591,7.855-3.452c-2.407,1.364-5.212,2.623-7.855,3.641v0.162c1.625-0.544,3.074-1.031,4.581-1.576
		c3.47-1.288,7.378-2.824,14.539-7.156c0.264,0.038-2.039,1.725,0.761,0.125c6.392-3.916,1.328-1.602,3.144-3.122
		c-4.826,3.142-7.275,4.229-10.391,5.397l1.207-0.957c-0.112,0.002,0.108-0.184,0.86-0.7l-0.86,0.7
		c0.273,0.028,3.413-1.691,4.394-2.105l0.518-0.952c-0.059,0.769,5.175-1.716,8.893-4.371c-4.135,2.055-3.075,1.403-4.51,1.45
		c5.052-3.916,6.47-3.232,12.051-7.807c-0.33,0.475-5.473,4.061-0.872,1.193c3.744-2.483,2.97-2.559,5.369-4.394
		c-2.509,2.356-1.563,2.185-4.273,4.76l-9.129,6.178c1.942-1.036,3.875-2.097,5.802-3.18c-5.636,3.745-3.826,3.152-4.189,3.634
		c5.039-2.871,6.74-4.285,7.995-5.411c1.25-1.138,2.04-2.021,5.155-4.083c2.765-2.333-5.812,3.896-1.376,0.4
		c5.79-3.917,1.118-1.167,7.42-5.869l-0.938,0.955c2.146-1.131,3.868-2.825,6.128-4.483c1.216-0.954,0.24-0.821,0.255-1.369
		c0.008-0.274,0.263-0.718,1.179-1.556c0.459-0.419,1.083-0.937,1.942-1.582c0.17-0.132,0.546-0.399,0.898-0.628
		c0.357-0.232,0.739-0.462,1.143-0.684c0.808-0.444,1.708-0.86,2.692-1.231c-0.721,0.428-0.962,0.646-0.938,0.698
		c0.929-0.722,1.893-1.375,2.864-1.96c4.486-1.27,7.955-1.423,11.004-1.517c3.04-0.052,5.635,0.105,8.135,0.323
		c4.988,0.463,9.6,1.176,15.997,2.357c0.952,0.308-0.607,0.089-1.402-0.015c9.044,1.5,22.039,4.959,28.36,6.103
		c2.757,0.713,9.723,2.631,7,2.267c1.318,0.221,2.815,0.478,4.255,0.793c0.333,0.414-3.301-0.598-3.456-0.374
		c0.871,0.213,1.336,0.354,1.639,0.396c0.078-0.001,0.161-0.001,0.269,0.007c-0.076,0.01-0.163,0.007-0.269-0.007
		c-0.654,0.011-0.343,0.325-0.741,0.456c-0.449,0.14-1.785,0.073-6.517-1.092c-1.749-0.819-0.095-0.433,1.738-0.023
		c1.834,0.412,3.833,0.825,2.86,0.172c-3.109-0.735-2.836-0.348-3.125-0.309c-3.989-0.991-3.844-1.18-3.584-1.31
		c-1.593-0.125-6.593-1.741-8.841-1.878c-7.943-1.84,0.582-0.515-4.61-1.74l-3.197,0.13c-2.878-0.709-5.774-1.39-8.697-2.023
		c-6.417-1.082-6.043-0.571-5.871-0.167c0.082,0.212,0.105,0.417-0.811,0.447c-0.919,0.038-2.768-0.131-6.484-0.484
		c0.997-0.093,0.045-0.529-2.055-1.025c-2.102-0.488-5.363-1.022-9.006-1.138c2.182-0.006,5.247,0.001,8.414,0.218
		c3.168,0.208,6.438,0.607,9.071,1.172c-3.703-0.921-1.11-0.556,1.916-0.063c3.022,0.494,6.453,1.152,4.612,0.396
		c-3.727-0.378-9.877-1.407-14.807-2.112l1.623,0.106c-2.61-0.357-4.96-0.375-7.585-0.338c-2.638,0.056-5.515,0.103-9.455,0.315
		c-1.956,0.224-2.792,0.352-3.03,0.304c-0.242-0.04,0.104-0.212,0.444-0.372c-1.699,0.342-3.345,0.832-4.576,1.274
		c-1.23,0.435-2.042,0.799-2.083,0.71c-0.565,0.442-1.118,0.911-1.649,1.412c-0.266,0.25-0.527,0.511-0.781,0.776
		c-0.26,0.274-0.515,0.554-0.65,0.759l-1.953,2.686l-3.784,5.356c2.63-1.856,5.278-3.759,8.218-5.718
		c3.267-2.02,7-2.744,10.659-3.074c7.374-0.571,14.83,0.438,22.158,1.764c1.657,0.719-0.989,0.425-3.951,0.126
		c-2.962-0.312-6.252-0.555-5.819-0.316c-2.238-0.267-4.487-0.465-6.746-0.549c0.19-0.197,3.753-0.136,6.49,0.075
		c2.734,0.195,4.667,0.348,1.646-0.323c-5.998-0.479-10.409-0.589-14.739-0.077c-2.158,0.276-4.31,0.717-6.509,1.64
		c-1.091,0.461-2.207,1.071-3.235,1.863c-1.007,0.76-2.052,1.58-3.158,2.471c0.844-0.329,2.023-1.039,3.43-1.955
		c0.498-0.34,1.066-0.661,1.663-0.969c0.094-0.048,0.188-0.097,0.284-0.145c0.998-0.492,2.098-0.934,3.285-1.275
		c3.385-0.991,7.261-1.278,10.575-1.083c5.246,0.039,11.127,0.714,17.188,1.736C94.533,171.939,96.189,171.991,96.482,171.712z
		 M216.242,181.526l-0.424-0.248l4.387,1.621l0.43,0.258L216.242,181.526z M186.442,165.229c0.398,0.224,0.791,0.455,1.178,0.69
		l1.066,0.663l0.329,0.301c-0.604-0.381-1.494-0.979-2.352-1.481c-0.376-0.222-0.761-0.436-1.15-0.646
		c-0.512-0.268-1.016-0.544-1.549-0.788c0.528,0.25,1.043,0.515,1.549,0.788C185.821,164.917,186.143,165.061,186.442,165.229z
		 M158.112,168.72c-0.593,0.393-1.172,0.793-1.742,1.197c1.41-1.05,2.882-2.083,4.463-3.034
		C159.888,167.471,158.986,168.089,158.112,168.72z M184.491,168.089c-0.725-0.421-1.346-0.953-4.017-2.083
		c0.8,0.271,2.364,0.899,3.896,1.794c0.761,0.438,1.54,0.957,2.193,1.44c0.624,0.462,1.199,0.902,1.649,1.296L184.491,168.089z
		 M297.144,216.143c2.241-0.333,4.468-0.743,6.672-1.241c0.991,0.064-3.38,1.047-3.845,1.219l0.334,0.035
		c-0.396,0.034-0.424,0.008-0.334-0.035C299.304,216.044,298.725,215.967,297.144,216.143c-0.982,0.146-1.968,0.277-2.955,0.39
		C295.494,216.347,296.406,216.222,297.144,216.143z M249.268,204.325c3.517,2.229,7.84,3.19,7.19,2.549
		c-8.213-3.592,2.442,0.709-1.849-1.527c0.299-0.212,2.776,0.688,5.388,1.476c2.599,0.809,5.302,1.524,5.581,1.696
		c-0.253,0.911,2.047,2.391-2.196,2.056c-3.772-0.585-8.656-2.114-12.838-4.267c-2.093-1.064-4.005-2.267-5.539-3.45
		c-1.54-1.181-2.688-2.331-3.442-3.212c-0.203-0.203-0.415-0.418-0.616-0.662c-0.223-0.264-0.334-0.402-0.808-1.124
		c0.127,0.158,0.265,0.34,0.412,0.546l0.289,0.363c0.2,0.25,0.436,0.544,0.723,0.876c0.961,0.92,1.709,1.358,2.579,1.882
		c0.889,0.516,1.923,1.136,3.94,2.187c-0.488-0.973,0.162-0.127,2.774,0.782C252.962,205.98,249.706,204.197,249.268,204.325z
		 M248.696,201.195c-1.359-0.841-2.895-1.651-2.87-2.083C246.683,199.748,247.104,200.074,248.696,201.195z"/>
	<path fill="#EF4136" d="M19.111,197.586c-0.805,0.772-2.793,2.048-4.618,3.182c-1.821,1.139-3.478,2.14-3.54,2.52
		c-0.34,0.347,1.065-0.27,2.614-1.013c1.714-0.87,3.534-1.83,5.443-2.878c0.019-0.115,0.357-0.403,0.947-0.832
		c-1.91,0.996-3.248,1.54-2.672,0.786c5.218-1.971,4.013-2.936,9.204-5.835C27.875,192.167,20.613,196.587,19.111,197.586z"/>
	<path fill="#EF4136" d="M315.229,213.294c2.542-0.672,2.81-0.899,4.771-1.372v-0.61
		C316.955,212.248,314.255,213.297,315.229,213.294z"/>
	<path fill="#EF4136" d="M111.676,173.344c1.958,0.451,2.573,0.396,2.881,0.365c-7.307-1.764-14.67-3.44-22.165-4.699
		c0.678,0.316,7.045,1.791,2.732,1.125c1.705,0.519,6.658,1.378,8.227,1.458l0.376,0.002c-0.083,0.009-0.218,0.006-0.376-0.002
		l-1.295-0.007c5.196,0.663,8.445,2.336,5.091,1.819l0.428,0.093c4.799,0.523,9.593,1.133,14.366,1.738
		C116.85,173.878,117.871,174.812,111.676,173.344z"/>
	<path fill="#EF4136" d="M103.728,171.595l-0.376-0.002C103.51,171.601,103.646,171.604,103.728,171.595z"/>
	<path fill="#EF4136" d="M125.28,175.653l4.459,0.534C127.976,175.917,126.407,175.728,125.28,175.653z"/>
	<path fill="#EF4136" d="M93.314,176.606c-0.011,0.026-0.062,0.042,0.042,0.1l1.993,0.094l-0.053-0.01L93.314,176.606z"/>
	<path fill="#EF4136" d="M219.3,182.15l1.393,0.565C220.188,182.499,219.729,182.315,219.3,182.15z"/>
	<path fill="#EF4136" d="M42.79,194.121c2.717-2.034,5.399-4.093,8.054-6.16c-0.962,0.97,2.974-1.884,1.399-0.435
		c0.612-0.475,3.482-2.62,2.614-2.158l-1.664,1.194c3.903-3.604,1.17-2.037,7.931-7.426c-4.611,2.711-6.352,4.438-8.523,6.353
		l-2.091,1.589c-2.098,1.87-4.216,3.734-6.359,5.586L42.79,194.121z"/>
	<path fill="#EF4136" d="M125.28,175.653l-3.339-0.417l1.633,0.463C123.741,175.606,124.337,175.59,125.28,175.653z"/>
	<path fill="#EF4136" d="M107.576,173.498l-3.119-0.33c3.189,0.563,6.883,1.33,11.352,2.187
		C113.07,174.719,110.327,174.095,107.576,173.498z"/>
	<path fill="#EF4136" d="M244.129,197.362c-0.032-0.142-0.102-0.329-0.13-0.44C244.003,197.035,244.053,197.189,244.129,197.362z"/>
	<path fill="#EF4136" d="M241.264,193.19c-0.153-0.207-0.319-0.424-0.514-0.665C240.927,192.738,241.092,192.97,241.264,193.19z"/>
	<path fill="#EF4136" d="M135.7,177.89c0.081,0.148-0.74,0.145-3.188-0.085c2.377,0.348,3.127,0.265,4.146,0.274
		c0.505,0,1.083,0.022,1.909,0.072c0.7,0.027,1.472,0.054,2.772-0.202c-0.969,0.355-1.597,0.588-1.351,0.822
		c0.128,0.11,0.487,0.211,1.174,0.188c0.686-0.031,1.708-0.198,3.12-0.787c3.458-1.708,6.421-4.363,9.38-6.825
		c2.968-2.488,5.95-4.99,9.637-6.973c1.841-0.983,3.875-1.818,6.099-2.337c2.219-0.52,4.62-0.7,7.007-0.465
		c2.39,0.229,4.74,0.85,6.952,1.744c1.107,0.447,2.185,0.961,3.229,1.53c1.037,0.553,2.128,1.261,2.858,1.693
		c0.096,0.357,2.633,2.233,5.975,4.177c3.322,1.967,7.455,3.979,10.204,5.289c-2.327-0.485-6.477-2.27-10.526-4.466
		c2.48,1.486,6.95,3.771,10.388,5.338l1.823-0.307c15.787,6.696-4.229-0.903,2.936,2.398c4.438,1.793,6.189,2.079,9.057,3.182
		c-6.508-2.589-5.895-2.662-5.365-2.81c0.569-0.139,1.032-0.283-5.265-2.899c1.023,0.067,3.345,0.861,5.999,1.891
		c2.65,1.03,5.643,2.322,7.863,3.423c2.42,1.476,1.237,1.063-0.702,0.332c-1.943-0.731-4.609-1.723-5.299-1.652
		c5.254,2.115,4.407,1.634,6.815,2.293c4.141,1.992,8.736,4.033,12.816,7.195c2.024,1.571,3.88,3.456,5.248,5.506
		c0.343,0.509,0.657,1.025,0.936,1.544l0.201,0.376l0.064,0.14c0.041,0.094,0.076,0.188,0.128,0.286l0.569,1.197
		c0.715,0.773,1.405,1.326,1.97,1.727c0.576,0.399,1.022,0.664,1.438,0.871c0.83,0.414,1.459,0.647,2.857,1.263
		c0.454-0.164-1.259-1.214-2.834-2.535c-0.795-0.654-1.521-1.371-2.006-1.983c-0.297-0.372-0.489-0.691-0.606-0.955
		c0.026,0.116,0.03,0.205-0.045,0.181c-0.133-0.199-0.247-0.388-0.347-0.565c-0.054-0.109-0.057-0.121-0.159-0.305l-0.508-0.89
		c-0.551-0.921-1.166-1.776-1.807-2.593c0.772,1.035,1.074,1.643,1.116,1.804c0.041,0.208-0.305-0.167-0.876-0.795
		c-1.125-1.306-3.297-3.338-4.694-4.421c-0.999-0.833-2.519-1.937-3.699-2.709c-1.181-0.785-2.024-1.311-1.695-1.237
		c1.046,0.559,2.1,1.167,3.156,1.846c-3.888-3.016-8.943-4.546-12.726-6.649c-0.144-0.244,1.394,0.356,1.671,0.372
		c-4.688-1.58-8.896-3.256-15.199-5.646l3.881,0.897c-2.662-0.704-6.752-2.309-10.902-4.407c-4.159-2.09-8.336-4.735-11.465-7.189
		c0.653,0.611,1.939,1.561,1.062,1.146c-0.5-0.308-0.977-0.619-1.421-0.928l-1.6-1.104c-1.064-0.718-2.013-1.319-2.725-1.772
		c-1.439-0.892-1.828-1.293-0.323-0.792c-1.535-0.588-3.794-1.547-6.758-2.197c-2.938-0.664-6.639-0.855-10.131-0.185
		c-3.503,0.64-6.657,1.981-9.149,3.374c-2.509,1.402-4.441,2.844-5.815,4.048c-2.095,1.859-3.956,3.667-5.73,5.251
		c-1.766,1.583-3.452,2.938-4.993,3.805c-0.771,0.436-1.496,0.752-2.208,0.948c-0.357,0.098-0.714,0.169-1.083,0.205
		c-0.45,0.028-1.097,0.008-1.673-0.01c-2.404-0.098-4.981-0.368-7.547-0.656c1.146,0.176,2.359,0.378,3.598,0.615
		C134.619,177.405,135.617,177.737,135.7,177.89z"/>
	<path fill="#EF4136" d="M168.475,162.939c-0.297,0.021-0.798,0.094-1.621,0.304C167.372,163.141,167.92,163.03,168.475,162.939z"/>
	<path fill="#EF4136" d="M193.817,170.84l1.279,0.698l-1.203-0.714C193.835,170.81,193.848,170.834,193.817,170.84z"/>
	<path fill="#EF4136" d="M127.306,177.75c-1.043-0.109-1.805-0.255-2.85-0.367l2.194,0.405
		C127.383,177.897,127.739,177.915,127.306,177.75z"/>
	<path fill="#EF4136" d="M124.104,176.081l0.589-0.062l-1.118-0.32C123.431,175.775,123.539,175.896,124.104,176.081z"/>
	<path fill="#EF4136" d="M261.559,213.838l1.62,0.304C262.216,213.917,261.792,213.842,261.559,213.838z"/>
	<path fill="#EF4136" d="M182.478,164.644c-1.614-0.835-3.876-1.601-6.399-1.928c-2.521-0.346-5.241-0.184-7.604,0.224
		c1.015-0.065-0.609,0.489-1.025,0.777c-0.214,0.138-0.152,0.173,0.643,0c0.797-0.141,2.347-0.592,5.247-0.638
		c-0.937,0.03-0.354,0.086-1.268,0.146c3.71,0.088,6.206,0.759,8.467,1.467c2.246,0.75,4.315,1.67,6.713,3.339
		c0.587,0.489,0.61,0.58,0.35,0.466c-0.132-0.058-0.329-0.163-0.573-0.302l-0.896-0.524c-1.266-0.729-2.607-1.395-1.199-0.512
		c0.399,0.225,0.819,0.476,1.251,0.753l1.268,0.845c0.814,0.555,1.698,1.139,2.615,1.729c1.834,1.18,3.817,2.365,5.663,3.37
		c3.692,2.01,6.811,3.317,6.829,2.774c4.302,1.937,4.843,2.368,6.068,3.118c3.659,1.042,10.172,3.721,15.898,6.547
		c2.855,1.416,5.477,2.937,7.389,4.17c1.913,1.225,3.134,2.104,3.346,1.83c-1.256-1.054-2.952-2.288-4.843-3.394
		c-1.889-1.114-3.96-2.119-5.947-2.912l0.437-0.847c-2.885-1.341-3.123-1.211-3.662-1.268c-0.534-0.039-1.377-0.246-5.354-1.926
		l2.319,1.035c-2.927-1.09-6.859-2.656-10.807-4.39c-3.952-1.73-7.902-3.673-11-5.362c0.816,0.147-3.539-2.401-2.586-2.394
		c-2.079-1.163-4.088-2.4-5.837-3.507C185.995,166.034,183.933,165.046,182.478,164.644z"/>
	<path fill="#EF4136" d="M134.114,174.914c-0.108-0.008-0.191-0.009-0.269-0.007C133.951,174.921,134.038,174.924,134.114,174.914z"
		/>
	<path fill="#EF4136" d="M61.531,165.824c1.23-0.442,2.876-0.932,4.576-1.274c-0.341,0.159-0.686,0.332-0.444,0.372
		c0.239,0.048,1.074-0.08,3.03-0.304c3.94-0.213,6.817-0.259,9.455-0.315c2.625-0.037,4.975-0.019,7.585,0.338l-1.623-0.106
		c4.93,0.705,11.08,1.733,14.807,2.112c1.841,0.756-1.59,0.098-4.612-0.396c-3.025-0.493-5.619-0.858-1.916,0.063
		c-2.633-0.565-5.903-0.964-9.071-1.172c-3.167-0.216-6.232-0.224-8.414-0.218c3.643,0.116,6.904,0.65,9.006,1.138
		c2.101,0.496,3.052,0.932,2.055,1.025c3.716,0.353,5.564,0.522,6.484,0.484c0.917-0.031,0.893-0.235,0.811-0.447
		c-0.172-0.403-0.545-0.915,5.871,0.167c2.922,0.633,5.819,1.314,8.697,2.023l3.197-0.13c5.192,1.225-3.333-0.101,4.61,1.74
		c2.248,0.137,7.248,1.752,8.841,1.878c-0.26,0.13-0.405,0.319,3.584,1.31c0.289-0.039,0.016-0.426,3.125,0.309
		c0.973,0.653-1.026,0.24-2.86-0.172c-1.833-0.41-3.486-0.796-1.738,0.023c4.732,1.165,6.067,1.232,6.517,1.092
		c0.397-0.131,0.086-0.445,0.741-0.456c-0.303-0.042-0.768-0.182-1.639-0.396c0.154-0.224,3.789,0.788,3.456,0.374
		c-1.439-0.315-2.937-0.572-4.255-0.793c2.723,0.365-4.243-1.554-7-2.267c-6.321-1.144-19.316-4.603-28.36-6.103
		c0.795,0.104,2.354,0.323,1.402,0.015c-6.397-1.182-11.009-1.895-15.997-2.357c-2.5-0.218-5.095-0.375-8.135-0.323
		c-3.049,0.093-6.518,0.247-11.004,1.517c-0.972,0.585-1.936,1.238-2.864,1.96C59.489,166.623,60.301,166.258,61.531,165.824z
		 M73.581,163.95c-1.695-0.006-3.419,0.051-5.188,0.216C70.452,163.887,72.375,163.824,73.581,163.95z"/>
	<path fill="#EF4136" d="M19.654,206.342l3.188-1.908C21.263,205.343,20.33,205.905,19.654,206.342z"/>
	<path fill="#EF4136" d="M13.84,196.971l0.86-0.7C13.948,196.787,13.728,196.973,13.84,196.971z"/>
	<path fill="#EF4136" d="M91.667,170.495c2.041,0.38,4.09,0.801,6.137,1.25l0.8,0.097C98.444,171.61,91.619,170.019,91.667,170.495z
		"/>
	<polygon fill="#EF4136" points="38.704,194.029 38.931,193.881 38.72,194.009 	"/>
	<path fill="#EF4136" d="M3.207,214.108c-0.752,0.468-1.843,1.015-3.207,1.582v0.579c0.845-0.293,1.514-0.529,2.056-0.7
		c1.331-0.437,1.899-0.546,2.477-0.639c0.572-0.099,1.152-0.183,2.451-0.644c1.294-0.465,3.325-1.292,6.663-3.008l-1.873,1.2
		c2.824-1.353,5.573-2.789,8.269-4.28l-2.863,1.091c3.174-1.808,6.259-3.701,9.284-5.651c5.484-3.74-2.555,0.973-1.977,0.254
		l-1.674,1.582c-3.843,2.06-9.212,5.276-10.24,5.308c3.247-1.611,4.38-2.381,5.048-2.885c0.661-0.512,0.837-0.785,2.034-1.555
		c-1.958,1.146-3.944,2.262-5.967,3.337l-2.196,0.602c-4.396,2.063-8.215,3.527-11.492,4.774v0.196
		C1.017,214.822,2,214.399,3.207,214.108z"/>
	<path fill="#EF4136" d="M317.891,213.416c0.561-0.232,1.106-0.452,1.624-0.659c-3.055,0.705-6.753,1.61-11.264,2.722
		c-31.72,7.818-64.532-2.338-71.563-14.838s-30.469-14.844-51.562-29.688s-32.154,12.734-46.875,10.938
		c-8.435-1.029-28.063-7.12-46.181-10.177c-2.408-0.219-5.588-0.603-9.032-1.006c0.465,0.082,4.104,0.516,9.307,1.507l-1.776-0.083
		c-7.711-1.345-15.102-2.22-21.948-1.547c2.482-0.423,5.1-0.598,8.183-0.439c-0.609-0.077-1.259-0.128-1.922-0.167
		c-5.515-0.04-10.323,0.624-13.86,2.359c-0.096,0.048-0.19,0.096-0.284,0.145c-0.488,0.252-0.958,0.52-1.394,0.815
		C47.728,181.185,22.269,200.799,0,208.896v1.354c1.25-0.34,2.54-0.721,3.856-1.146c-1.262,0.499-2.552,0.968-3.856,1.417v3.023
		c0.879-0.283,1.688-0.549,2.387-0.775l-0.239,0.197c1.864-0.648,4.656-1.903,7.022-3.044c2.373-1.133,4.344-2.127,4.746-2.052
		c2.083-1.151,7.737-4.359,1.755-1.502c3.195-1.758,6.316-3.612,9.383-5.528c-1.118,1.671,7.805-3.403-1.142,2.704
		c0.31-0.207,3.736-2.256,9.005-5.776c-0.068,0.077-0.116,0.141-0.205,0.231c-0.293,0.23-0.518,0.429-0.629,0.578
		c-1.102,0.662-1.747,1.104-2.012,1.074c-2.93,2.508,1.976-0.236,6.959-3.432l0.898-1.174c4.406-2.577,7.178-3.927,12.582-7.966
		l11.551-10.341c0.835-0.569,1.9-1.063,3.087-1.449c0.815-0.112,2.657-0.485,4.111-0.585c1.447-0.108,2.395-0.06,1.21,0.31
		c0.643,0.194-1.45,0.384-3.858,0.803c-0.375,0.026,0.207-0.151-0.188-0.122c-0.304,0.224-0.484,0.449-0.247,0.562
		c0.246,0.122,0.884,0.111,2.399,0.049c-1.526,0.196-2.306,0.378-2.956,0.565c-0.634,0.196-1.156,0.411-1.841,0.851
		c0.705-0.312,1.542-0.58,2.458-0.792c-1.009,0.283-2.028,0.721-2.765,1.224c-0.18,0.127-0.354,0.252-0.498,0.382l-0.842,0.667
		l-1.687,1.379c-2.134,1.789-3.692,3.242-3.52,3.378c0.522-0.74,1.598-1.505,2.847-2.277l3.814-2.257l-1.476,1.157
		c-0.55,0.441-1.09,0.886-1.479,1.224c-0.78,0.679-0.95,0.92,0.581-0.111c0.233-0.236,0.909-0.791,1.687-1.411l0.597-0.473
		c0.263-0.2,0.234-0.201,0.35-0.294c0.171-0.148,0.371-0.299,0.57-0.432c0.388-0.271,0.75-0.471,0.696-0.528
		c-0.025-0.053-0.545,0.028-1.36,0.413c0.592-0.439,1.607-0.972,2.905-1.361c1.294-0.391,2.837-0.634,4.309-0.658
		c-1.703,0.292-1.926,0.485-1.901,0.613c0.035,0.136,0.354,0.245-0.059,0.507c1.386-0.368,2.135-0.595,2.537-0.803
		c0.412-0.2,0.504-0.362,0.752-0.474c4.556,0.1,7.956,0.835,11.462,1.508c3.528,0.708,7.237,1.44,12.84,2.33
		c0.739,0.108-0.959-0.188-2.694-0.503c-1.735-0.318-3.506-0.647-2.946-0.757c4.11,0.354,6.74,1.088,9.206,1.846
		c2.471,0.766,4.788,1.573,8.374,2.27l-1.845-1.124c2.231,0.389,7.645,1.589,10.34,2.204c0.614,0.386,8.227,2.745,2.455,1.534
		c6.155,1.727,9.072,2.052,12.308,2.347l2.595,0.222l3.395,0.265c1.702,0.107,3.644-0.002,5.68-0.444
		c2.039-0.437,4.139-1.206,6.219-2.227c-3.91,1.86-6.944,2.402-9.584,2.469c-1.297,0.044-2.794-0.13-3.726-0.275
		c-1.065-0.156-2.2-0.354-3.588-0.632c3.027,0.404,3.368,0.329,2.896,0.179c-0.453-0.159-1.554-0.46-1.172-0.627
		c0.444,0.136,1.024,0.28,1.706,0.418c0.344,0.068,0.708,0.136,1.104,0.197c0.4,0.064,1.002,0.136,1.512,0.164
		c2.147,0.147,4.333-0.207,5.847-0.617c1.526-0.409,2.466-0.803,2.526-0.767c0.028,0.003-0.709,0.538-3.325,1.322
		c1.63-0.352,3.501-1.011,5.244-1.855c1.75-0.841,3.389-1.842,4.823-2.804c2.862-1.943,4.994-3.655,5.749-4.355l-3.371,2.166
		c2.779-2,5.176-3.933,7.159-5.37c1.975-1.454,3.516-2.416,4.398-3.013c-1.469,0.599-2.562,1.279-3.471,1.909
		c-0.91,0.639-1.641,1.246-2.433,1.91c-0.793,0.667-1.644,1.395-2.833,2.347c-1.2,0.951-2.704,2.146-5.051,3.719
		c-2.627,1.629-4.076,2.245-4.514,2.396c-0.461,0.147,0.012-0.161,0.575-0.553c0.567-0.391,1.211-0.868,1.246-1.01
		c0.022-0.149-0.485,0.079-2.495,0.94c-1.377,0.788-2.898,1.521-4.614,2.063c-1.708,0.543-3.629,0.875-5.597,0.844
		c1.851,0.131,3.695-0.065,5.378-0.464c-0.362,0.257-1.611,0.665-3.394,0.812c-0.887,0.07-1.901,0.07-2.943-0.044
		c-0.91-0.101-1.657-0.221-2.438-0.353c-3.03-0.529-5.519-1.11-5.115-0.593c-4.011-1.226-6.537-1.931-9.186-2.638
		c-2.64-0.709-5.364-1.447-9.587-2.768c-2.099-0.216,1.053,0.544,3.469,1.186c-4.35-1.087-4.777-0.396-10.343-2.161
		c-2.852-0.738-1.022,0.328,4.068,1.511c-4.341-1.051-8.517-1.854-13.278-2.863c1.595,0.481,3.189,0.981,4.783,1.496
		c-1.684-0.354-3.366-0.691-5.044-1.008l4.183,1.137c-4.825-0.97-9.97-1.904-14.473-2.569c-4.51-0.683-8.35-1.062-10.709-1.376
		c3.875-0.314,9.374,0.113,14.483,0.791c5.115,0.662,9.848,1.484,12.366,1.58c-1.82-0.656-6.829-0.773-9.126-1.898l-2.622,0.056
		l-6.025-0.642c-2.113-0.232-3.904-0.426-4.177-0.688c3.948,0.101,6.52,0.276,8.589,0.361c2.075,0.099,3.667,0.148,5.763,0.311
		c0.053-0.095,0.798-0.018,1.983,0.184l0.131,0.013L95.35,176.8c2.422,0.404,6.352,1.281,8.636,1.674
		c2.843,0.749,0.804,0.577,0.479,0.606c4.822,1.398,9.017,2.183,13.314,2.971c4.31,0.782,8.66,1.613,13.992,2.991
		c0.013,0.219,2.089,0.811,3.968,1.229l1.329,0.28l0.557,0.109l0.521,0.092c0.586,0.089,0.636,0.152-0.292,0.119
		c2.24,0.273,4.247,0.016,5.889-0.417c1.654-0.438,2.989-1.038,4.146-1.654c2.301-1.251,3.947-2.567,5.667-3.916
		c0.517-0.108,2.571-1.539,4.089-2.617c1.529-1.077,2.615-1.8,1.502-0.743c1.383-1.262,2.733-2.462,4.104-3.546
		c1.59-0.848,3.917-2.091,5.977-2.631c2.058-0.585,3.84-0.494,4.325-0.235c1.584,0.061,1.849,0.022,2.259-0.031
		c0.405,0.004,0.996-0.068,3.211,1.023c-0.251,0.002,0.079,0.197-0.846-0.218c0.973,0.494,2.66,1.412,4.336,2.585
		c1.979,1.38,4.128,2.666,5.473,3.292c-1.84-1.21-2.026-1.389-2.314-1.603c-0.281-0.223-0.673-0.468-2.802-2.003
		c0.251-0.13,5.253,2.93,10.292,5.957c-3.666-1.655-2.372-0.754-0.572,0.384c1.8,1.129,4.131,2.386,2.37,1.694
		c11.361,5.827,18.571,7.102,27.732,10.938c2.601,1.287,5.238,2.797,7.445,4.639c1.097,0.922,2.084,1.923,2.881,3.005
		c0.197,0.272,0.389,0.545,0.564,0.826l0.59,0.985c0.519,0.862,1.095,1.651,1.702,2.38c2.457,2.896,5.315,4.89,8.035,6.479
		c2.737,1.567,5.387,2.689,7.741,3.486l-1.203-0.526c1.864,0.667,3.747,1.234,5.638,1.729c1.606,0.524,1.57,0.684,1.763,0.9
		c0.193,0.205,0.613,0.5,3.182,1.09c-0.933,0.075-3.169-0.493-5.792-1.375c-2.626-0.881-5.616-2.111-8.182-3.159
		c2.065,1.179,2.619,1.497,2.321,1.477c-0.292-0.033-1.42-0.452-2.624-0.985c-2.408-1.048-5.128-2.6-2.439-0.733
		c1.917,0.424,6.483,2.667,11.79,4.371c5.285,1.758,11.274,3.021,15.312,3.225c3.871,0.563,2.977,0.554,1.58,0.528
		c-1.395-0.046-3.28-0.212-1.347,0.1c0.847-0.018,1.69-0.041,2.532-0.078c3.075,0.434,4.093,0.584,3.992,0.852
		c4.161,0.392,8.658,0.429,12.958,0.088c4.301-0.33,8.398-1.031,11.792-1.894c-4.429,0.865-3.702,0.549-2.956,0.283
		c0.738-0.314,1.488-0.571-2.899-0.012l5.807-1.102c2.386-0.474,5.193-1.139,7.727-1.787c-2.448,0.692-0.744,0.496,0.196,0.439
		c0.47-0.028,0.749-0.022,0.223,0.147c-0.527,0.159-1.824,0.523-4.729,1.109c0.842,0.133,2.333-0.232,4.055-0.761
		c1.75-0.526,3.902-1.219,6.348-1.761c-2.445,0.81-7.886,2.54-7.377,2.478c2.656-0.96,6.645-1.973,10.684-2.827v-3.737
		C319.399,213.133,318.71,213.266,317.891,213.416z M38.704,194.029l0.016-0.02l0.211-0.127L38.704,194.029z M57.615,174.625
		l0.44-0.323c1.471-1.036,2.309-1.504,2.783-1.687C59.676,173.183,58.663,173.943,57.615,174.625z"/>
	<path fill="#EF4136" d="M179.952,166.649l-0.257-0.009C179.812,166.661,179.905,166.669,179.952,166.649z"/>
	<path fill="#EF4136" d="M64.307,171.062c-1.188,0.341-2.287,0.783-3.285,1.275c3.537-1.735,8.345-2.399,13.86-2.359
		C71.568,169.784,67.692,170.071,64.307,171.062z"/>
	<path fill="#EF4136" d="M7.855,200.457c-2.614,0.861-5.284,2.309-7.855,3.452v0.189C2.643,203.079,5.448,201.821,7.855,200.457z"/>
	<path fill="#EF4136" d="M55.645,175.406c1.106-0.891,2.15-1.711,3.158-2.471c1.028-0.792,2.144-1.402,3.235-1.863
		c2.2-0.923,4.352-1.364,6.509-1.64c4.33-0.512,8.741-0.402,14.739,0.077c3.021,0.671,1.088,0.519-1.646,0.323
		c-2.736-0.211-6.3-0.271-6.49-0.075c2.259,0.084,4.508,0.282,6.746,0.549c-0.434-0.239,2.856,0.004,5.819,0.316
		c2.962,0.298,5.608,0.593,3.951-0.126c-7.328-1.326-14.784-2.335-22.158-1.764c-3.659,0.33-7.392,1.054-10.659,3.074
		c-2.939,1.959-5.587,3.862-8.218,5.718l3.784-5.356l1.953-2.686c0.136-0.205,0.39-0.485,0.65-0.759
		c0.254-0.265,0.515-0.526,0.781-0.776c0.532-0.501,1.084-0.97,1.649-1.412c-0.024-0.052,0.217-0.27,0.938-0.698
		c-0.985,0.371-1.884,0.787-2.692,1.231c-0.404,0.221-0.785,0.451-1.143,0.684c-0.353,0.229-0.728,0.496-0.898,0.628
		c-0.859,0.646-1.483,1.163-1.942,1.582c-0.916,0.838-1.171,1.282-1.179,1.556c-0.015,0.547,0.961,0.415-0.255,1.369
		c-2.26,1.659-3.982,3.353-6.128,4.483l0.938-0.955c-6.302,4.701-1.63,1.952-7.42,5.869c-4.436,3.496,4.142-2.734,1.376-0.4
		c-3.115,2.062-3.906,2.945-5.155,4.083c-1.254,1.125-2.956,2.54-7.995,5.411c0.363-0.482-1.447,0.11,4.189-3.634
		c-1.927,1.083-3.86,2.145-5.802,3.18l9.129-6.178c2.709-2.575,1.764-2.404,4.273-4.76c-2.399,1.835-1.625,1.911-5.369,4.394
		c-4.601,2.868,0.542-0.718,0.872-1.193c-5.581,4.575-6.999,3.891-12.051,7.807c1.435-0.047,0.375,0.605,4.51-1.45
		c-3.718,2.655-8.952,5.14-8.893,4.371l-0.518,0.952c-0.981,0.415-4.121,2.133-4.394,2.105l-1.207,0.957
		c3.116-1.168,5.565-2.255,10.391-5.397c-1.816,1.521,3.248-0.794-3.144,3.122c-2.799,1.6-0.497-0.087-0.761-0.125
		c-7.16,4.333-11.069,5.869-14.539,7.156c-1.507,0.545-2.956,1.032-4.581,1.576v3.805c1.591-0.56,3.007-1.09,4.134-1.511
		l-1.606,0.756c-0.886,0.354-1.722,0.671-2.528,0.968v0.619c22.269-8.097,47.728-27.711,59.344-35.598
		c0.436-0.296,0.906-0.563,1.394-0.815c-0.597,0.309-1.166,0.629-1.663,0.969C57.667,174.368,56.489,175.077,55.645,175.406z
		 M26.49,193.514c-5.191,2.899-3.986,3.864-9.204,5.835c-0.576,0.754,0.762,0.21,2.672-0.786c-0.59,0.429-0.928,0.717-0.947,0.832
		c-1.909,1.049-3.729,2.008-5.443,2.878c-1.549,0.744-2.955,1.36-2.614,1.013c0.062-0.38,1.718-1.381,3.54-2.52
		c1.824-1.134,3.813-2.409,4.618-3.182C20.613,196.587,27.875,192.167,26.49,193.514z M48.108,181.119l0.77-1.098
		c1.298-0.768,1.749-0.867,2.194-0.93L48.108,181.119z"/>
	<path fill="#EF4136" d="M320,211.922c-1.961,0.473-2.229,0.699-4.771,1.372c-0.975,0.003,1.726-1.046,4.771-1.982v-0.228
		c-1.402,0.257-2.807,0.509-4.201,0.78l-5.2,1.735c-1.966,0.639-4.084,1.339-6.362,1.919c-4.553,1.185-9.718,1.977-14.71,2.09
		c1.604-0.397,4.816-0.646,2.188-0.926c-4.223,0.423-9.967,1.103-15.584,0.237c0.775,0.033,0.303-0.074,1.065-0.047
		c-4.959-0.188-6.806-0.594-8.509-0.975c-1.698-0.426-3.281-0.838-7.59-2.001c0.151-0.012,0.192-0.07,0.461-0.058
		c-1.782-0.354-3.555-0.766-5.309-1.252c-5.546-1.502-8.351-3.209-10.416-4.769c-1.031-0.796-1.879-1.586-2.752-2.458
		c-0.867-0.875-1.773-1.828-2.781-3.042c0.334,0.324,0.683,0.638,1.041,0.943c-0.627-0.786-1.65-1.94-2.498-3.382
		c-0.177-0.294-0.504-0.91-0.824-1.388c-0.323-0.509-0.688-1.003-1.071-1.494c-0.777-0.97-1.662-1.883-2.592-2.71
		c-3.764-3.299-8.024-5.24-9.782-6.274c2.19,1.297,2.511,1.614,2.68,1.832c0.162,0.232,0.184,0.377,1.624,1.593
		c1.937,1.124,2.685,1.444,3.729,2.034c0.518,0.303,1.106,0.685,1.896,1.373c0.779,0.691,1.794,1.681,2.91,3.367
		c-0.509-0.284-2.333-2.38-4.616-3.961c-2.247-1.633-4.78-2.889-5.72-3.168c-3.592-1.958-5.779-3.842-6.01-4.329l-12.184-5.291
		c-3.846-1.72-7.938-3.534-13.351-6.343c-2.007-0.869-3.878-1.479-6.27-2.687c-1.2-0.607-2.497-1.362-4.023-2.417
		c-1.57-1.05-3.428-2.268-5.922-3.387l0.378,0.013c-0.48-0.087-1.498-0.478-2.726-0.783c-1.516-0.399-3.347-0.585-4.464-0.407
		c1.903,0.322,0.714,0.379-0.317,0.501c-0.52,0.066-1.007,0.16-1.082,0.238c-0.075,0.085,0.263,0.109,1.369,0.216
		c-3.058,0.134-4.806,0.606-5.947,0.696c-1.135,0.132-1.647,0.013-2.038-0.086c-1.902,1.26-4.603,2.702-7.679,4.705
		c-3.095,1.956-6.48,4.513-10.22,6.843c0.623-0.493,2.961-2.061,4.659-3.441c1.706-1.359,2.831-2.342,1.042-1.277
		c-2.988,2.541-5.935,5.053-9.358,6.408c1.559-0.458,3.073-1.188,4.54-2.042c-3.596,2.473-6.43,2.953-8.583,2.65
		c-2.23-0.37-4.11-1.027-6.594-1.69c-0.935-0.464,2.391,0.219,4.83,0.618c-2.624-0.446-6.931-1.331-10.476-2.001
		c-2.708-0.382-11.981-2.375-15.8-2.81l-1.478-0.399c0.152-0.013,0.399-0.001,0.698,0.054c-0.748-0.162-1.364-0.278-1.932-0.381
		l-4.645-1.176l0.963,0.094l-1.826-0.306c-1.597-0.386-3.21-0.759-4.828-1.118l-2.549-0.286l1.229,0.253
		c-0.293,0.278-1.949,0.227-4.413,0.002c18.118,3.057,37.746,9.147,46.181,10.177c14.721,1.796,25.781-25.781,46.875-10.938
		s44.531,17.188,51.562,29.688s39.844,22.656,71.563,14.838c4.511-1.112,8.209-2.017,11.264-2.722
		c0.167-0.067,0.325-0.13,0.485-0.194V211.922z"/>
	<path fill="#EF4136" d="M21.16,207.317l0.932-0.375c1.359-0.843,2.703-1.7,4.034-2.568l-0.929,0.398
		C23.866,205.633,22.521,206.482,21.16,207.317z"/>
	<path fill="#EF4136" d="M270.204,223.717c-2.192-0.33-4.904-0.885-3.963-1.013c2.745,0.318,6.704,0.918,9.07,1.276
		c0.91-0.208-2.439-0.828-1.997-1.155c-4.936-0.785-7.805-1.115-10.685-1.465c-2.868-0.388-5.76-0.77-10.469-2.611
		c0.251-0.103,1.132,0.042,1.175-0.074c0.046-0.126-0.757-0.419-3.818-1.665l1.581,0.566c-4.973-1.797-6.722-3.146-8.052-4.044
		c-1.326-0.979-2.238-1.494-5.392-3.372l0.48-0.289c-1.065-0.75-2.349-1.781-3.647-3.199c-0.648-0.709-1.306-1.503-1.917-2.425
		c-0.742-1.161-0.844-1.363-1.217-1.861c-1.301-1.805-3.451-3.466-5.209-4.559l0.264,0.052c-2.518-1.459-4.393-2.267-5.73-2.884
		l-3.15-1.423c-1.861-0.855-3.854-1.756-10.992-4.639l6.704,2.17c-4.699-2.265-6.095-2.109-9.579-3.712
		c0.248,0.01-0.193-0.497,1.8,0.21c-5.467-2.05-10.994-4.312-16.388-7.106c-4.219-2.039,0.615,0.835,1.148,1.357
		c-0.835-0.27-3.08-1.505-5.091-2.848c-1.009-0.663-1.956-1.353-2.663-1.902c-0.704-0.558-1.184-0.981-1.163-1.064
		c0.156,0.063,0.66,0.372,1.112,0.641l1.399,0.81c0.825,0.448,1.229,0.61,0.076-0.268l-1.514-0.772l-0.755-0.396l-0.604-0.287
		c-0.784-0.358-1.561-0.661-2.315-0.898c-1.313-0.815-1.688-1.043-1.465-1.112c0.226-0.054,1.07,0.134,2.213,0.623
		c0.57,0.244,1.213,0.562,1.875,0.938l0.501,0.292l0.635,0.389l1.273,0.77c1.682,1.002,3.262,1.868,4.237,2.365
		c-1.92-1.186-3.492-2.19-4.9-3.109l-1.027-0.674l-0.791-0.492c-0.52-0.308-1.027-0.58-1.538-0.828
		c-1.02-0.493-2.049-0.899-3.188-1.213c-1.144-0.308-2.38-0.536-3.876-0.515c1.768,0.065,2.837,0.581,3.71,1.037
		c0.005,0.328-1.332-0.106-3.044-0.169c-0.863-0.035-1.841,0.025-2.891,0.257c-1.047,0.226-2.168,0.628-3.217,1.132
		c1.386-0.486,1.666-0.413,1.432-0.214c-0.24,0.212-1.026,0.645-1.94,1.25c-0.341,0.196-0.558,0.357-0.703,0.482l-0.631,0.458
		l0.511-0.296c-0.002,0.078,0.149,0.081,0.56-0.017c1.703-1.023,3.156-1.462,4.328-1.612c1.179-0.151,2.089-0.043,2.946,0.041
		c-0.817-0.493,0.632-0.685,2.861,0.174c1.111,0.428,2.412,1.15,3.601,1.965c0.493,0.333,1.43,1.004,2.107,1.441
		c0.708,0.469,1.334,0.848,1.821,1.121c1.46,0.902,2.938,1.763,4.426,2.585l1.655,0.934c0.291,0.272-0.255,0.157-2.877-1.155
		c1.099,0.547,3.407,1.821,5.394,2.803c1.986,0.987,3.636,1.715,3.37,1.415c5.43,2.664,10.918,4.92,16.147,7.127
		c0.475,0.244,0.939,0.494,1.271,0.712c0.558,0.172,0.664,0.164,0.618,0.091c2.796,1.204,5.504,2.415,7.94,3.712
		c2.435,1.292,4.594,2.693,6.124,4.139c0.759,0.724,1.375,1.442,1.828,2.168l0.504,0.842c0.307,0.526,0.635,1.007,0.968,1.482
		c0.667,0.947,1.378,1.78,2.104,2.564c2.92,3.1,6.07,5.228,9.239,7.039c6.361,3.542,12.918,5.708,19.542,7.243
		c6.626,1.51,13.334,2.307,20.055,2.485c-3.978-0.193-7.397-0.682-11.445-1.337C274.059,224.276,272.393,224.051,270.204,223.717z"
		/>
	<path fill="#EF4136" d="M205.461,187.601c0.396,0.148,0.792,0.305,1.186,0.451C206.174,187.862,205.788,187.717,205.461,187.601z"
		/>
	<path fill="#EF4136" d="M172.653,172.302c-0.647-0.016-1.383,0.038-2.269,0.248C171.245,172.384,171.966,172.315,172.653,172.302z"
		/>
	<path fill="#EF4136" d="M282.412,225.539c1.758,0.079,3.584,0.099,5.667-0.001C286.19,225.587,284.301,225.588,282.412,225.539z"/>
	<path fill="#EF4136" d="M161.031,178.671c-2.403,1.721-4.912,3.703-7.934,5.648c1.604-0.877,1.096-0.43,0.108,0.308
		c-0.982,0.741-2.619,1.738-2.908,1.987c4.307-2.285,7.442-4.841,10.433-6.968C160.569,179.509,161.316,178.694,161.031,178.671z"/>
	<path fill="#EF4136" d="M163.45,178.208c0.206-0.308,1.022-1.008,1.919-1.674c-1.477,0.873-3.018,1.938-4.64,3.112
		C160.844,179.761,161.505,179.42,163.45,178.208z"/>
	<path fill="#EF4136" d="M158.112,168.72c0.874-0.631,1.776-1.25,2.721-1.836c-1.582,0.951-3.054,1.984-4.463,3.034
		C156.94,169.514,157.52,169.113,158.112,168.72z"/>
	<path fill="#EF4136" d="M184.37,167.8c-1.531-0.895-3.096-1.523-3.896-1.794c2.671,1.129,3.292,1.661,4.017,2.083l3.722,2.447
		c-0.45-0.394-1.025-0.834-1.649-1.296C185.91,168.757,185.131,168.238,184.37,167.8z"/>
	<path fill="#EF4136" d="M189.016,166.883l-0.329-0.301l-1.066-0.663c-0.387-0.236-0.779-0.466-1.178-0.69
		c-0.3-0.168-0.621-0.312-0.929-0.472c0.39,0.21,0.774,0.423,1.15,0.646C187.521,165.904,188.411,166.502,189.016,166.883z"/>
	<path fill="#EF4136" d="M185.514,164.757c-0.506-0.273-1.021-0.538-1.549-0.788C184.498,164.212,185.002,164.489,185.514,164.757z"
		/>
	<path fill="#EF4136" d="M310.899,221.444c4.409-1.19,5.449-1.676,6.944-2.196c0.577-0.2,1.229-0.406,2.156-0.65v-0.459
		c-1.09,0.261-2.179,0.524-3.26,0.785l-5.197,1.275c-1.688,0.417-3.545,0.884-5.4,1.273c-7.409,1.554-15.009,2.364-23.2,2.503
		c3.22,0.207,4.311,0.25,4.187,0.348c-0.123,0.088-1.46,0.183-3.078,0.232c-3.233,0.135-7.6-0.049-5.588,0.477
		c2.37,0.069,4.738,0.055,7.101-0.033l-0.609,0.204c2.887-0.012,5.771-0.142,8.649-0.391c-1.801-0.206-3.127-0.174-2.76-0.554
		c5.73-0.289,6.639-0.415,7.178-0.3c0.538,0.065,0.7,0.308,4.936-0.151c2.13-0.376,4.251-0.821,6.356-1.337l5.88-1.472l-0.923,0.338
		c0.983-0.249,1.404-0.397,1.729-0.538c1.332-0.328,2.669-0.655,4-0.977v-0.261C315.895,220.49,312.169,221.304,310.899,221.444z"/>
	<polygon fill="#EF4136" points="215.818,181.278 216.242,181.526 220.635,183.157 220.205,182.899 	"/>
	<path fill="#EF4136" d="M240.551,198.405c-0.147-0.206-0.285-0.389-0.412-0.546c0.474,0.722,0.585,0.86,0.808,1.124
		c0.201,0.244,0.413,0.458,0.616,0.662c-0.287-0.332-0.522-0.626-0.723-0.876L240.551,198.405z"/>
	<path fill="#EF4136" d="M248.082,203.713c-2.018-1.051-3.052-1.671-3.94-2.187c-0.87-0.524-1.618-0.962-2.579-1.882
		c0.754,0.881,1.902,2.031,3.442,3.212c1.534,1.183,3.446,2.386,5.539,3.45c4.182,2.153,9.065,3.682,12.838,4.267
		c4.243,0.335,1.943-1.145,2.196-2.056c-0.279-0.172-2.982-0.887-5.581-1.696c-2.611-0.788-5.089-1.688-5.388-1.476
		c4.291,2.236-6.364-2.064,1.849,1.527c0.649,0.641-3.674-0.32-7.19-2.549c0.438-0.128,3.694,1.656,1.589,0.171
		C248.244,203.586,247.594,202.741,248.082,203.713z"/>
	<path fill="#EF4136" d="M248.696,201.195c-1.593-1.121-2.014-1.447-2.87-2.083C245.802,199.544,247.337,200.354,248.696,201.195z"
		/>
	<path fill="#EF4136" d="M299.971,216.122c0.465-0.172,4.836-1.155,3.845-1.219c-2.204,0.498-4.431,0.908-6.672,1.241
		C298.725,215.967,299.304,216.044,299.971,216.122z"/>
	<path fill="#EF4136" d="M294.188,216.533c0.987-0.113,1.973-0.244,2.955-0.39C296.406,216.222,295.494,216.347,294.188,216.533z"/>
	<path fill="#EF4136" d="M300.305,216.157l-0.334-0.035C299.881,216.165,299.909,216.19,300.305,216.157z"/>
</g>
</svg>
